<svg xmlns="http://www.w3.org/2000/svg" viewBox="0 0 310 65">
    <defs>
        <style>.cls-1{fill:#00305d;}.cls-2{fill:#b51f29;}</style>
    </defs>
    <polygon class="cls-1" points="106.8 3.67 89.97 16.49 85.89 16.49 85.89 3.67 78.44 3.67 78.44 36.74 85.89 36.74 85.89 22.69 89.69 22.69 108.35 36.74 119.01 36.74 96.62 19.84 118.57 3.67 106.8 3.67"/>
    <path class="cls-1" d="M154.7,45c7.93.17,10.8-.43,13.22-5.23l13.66-26.27h-7L166,31.09l-8.72-17.64h-7.13l11.21,22.36,1.13,2.29c-1.19,2.08-1.74,2.21-7.77,2.21Z"/>
    <path class="cls-1" d="M125.93,22.72c0-4.43.9-5.23,8.38-5.23,6.71,0,8.39.8,8.39,5.23Zm-.06,5.16V26.42h23.2V23.14c0-8.31-5.07-10.09-12.11-10.09h-6.3c-5.57,0-11.42,1-11.42,9.41v5.07c0,8.59,5.85,9.55,11,9.55h7.13c7.31,0,11.74-1.47,11.74-7.62V29h-6.23c0,3.48-2,3.86-6.89,3.86h-2.7c-6.85,0-7.38-1.57-7.38-5"/>
    <path class="cls-1" d="M275.33,27.73c0,8.44,6.26,9.4,9.78,9.4H294c7.31,0,10.23-2.28,10.23-8.17v-.69h-3.65v.78c0,3.79-3.07,4.89-6.72,4.89h-6.62c-4.75,0-7.95-1.19-7.95-6.4V22.65c0-5.8,3.47-6.34,7.17-6.34h7.22c3.93,0,6.48.91,6.48,4.79v.55h3.66V21c0-4.93-2.88-7.9-10.19-7.9H287c-5.75,0-11.69,1-11.69,9.41Zm-33.62,2.42c0,7,5.44,7,11.24,7h7.22c4.79,0,10.82-.22,10.82-6.76v-.09c0-6.3-4-6.89-9.91-6.89H250.71c-4.11,0-4.75-1.1-4.75-3V19.5c0-2.65,1.23-3.19,6.85-3.19h6.85c4.3,0,6.67.09,6.67,3.65v.23H270V19c0-3.29-1.24-5.85-10.1-5.85h-6c-9.68,0-11.83,2.1-11.83,5.89v1.37c0,4.43,2.06,6.21,7.58,6.21h12.11c4.7,0,5.34,1.24,5.34,3.47v.19c0,3.47-1.87,3.7-7.76,3.7h-8.41c-4,0-5.52-1.19-5.52-4.07V28.73h-3.66ZM232.3,8h3.93V3.7H232.3Zm0,28.78h3.93V13.47H232.3Zm-47.46,0h26.59c11.24,0,14.25-4.39,14.25-16.54,0-13.06-3-16.53-14.11-16.53H184.84ZM221.2,22c0,9.92-3.74,11.1-9.18,11.1h-22.7V7.35h23.43c5.48,0,8.45,1.74,8.45,11.29Z"/>
    <path class="cls-2" d="M56.4,44.49a3.66,3.66,0,0,1,2,.62l-4-19.18a2.68,2.68,0,0,0-2.51-2H33.58a2.68,2.68,0,0,0-2.51,2l-4,19.18a3.66,3.66,0,0,1,2-.62Z"/>
    <path class="cls-2" d="M54.65,49.58H49.4a.63.63,0,0,1,0-1.25h5.25a.63.63,0,0,1,0,1.25m-25.56,4.5H56.4a2.41,2.41,0,0,0,2.41-2.41V48.14a2.35,2.35,0,0,0-.38-1.28,2.39,2.39,0,0,0-2-1.13H29.09a2.38,2.38,0,0,0-2,1.13,2.35,2.35,0,0,0-.38,1.28v3.53a2.41,2.41,0,0,0,2.41,2.41"/>
    <path class="cls-1" d="M16.17,47.75c-8.44,0-8.59-8.24-8.59-8.58V5.59H41.16c8.45,0,8.59,8.24,8.59,8.59v4h2.59v-4C52.34,10.31,50,3,41.16,3H5V39.17C5,43,7.33,50.34,16.17,50.34h4.4V47.75Z"/>
    <path class="cls-1" d="M303.75,57.34a6.52,6.52,0,0,1-.16,1.58,2.5,2.5,0,0,1-.53,1,2.11,2.11,0,0,1-.95.57,5,5,0,0,1-1.45.18h-5.09A5,5,0,0,1,294,60.5a2.25,2.25,0,0,1-1-.64,2.41,2.41,0,0,1-.53-1.06,6.13,6.13,0,0,1-.16-1.51v-2.5a6,6,0,0,1,.16-1.5,2.45,2.45,0,0,1,.53-1.07,2.34,2.34,0,0,1,1-.64,5.33,5.33,0,0,1,1.56-.2h4.67a8.35,8.35,0,0,1,1.22.09,3.14,3.14,0,0,1,1.08.37,2.21,2.21,0,0,1,.78.77,2.3,2.3,0,0,1,.31,1.27v.33h-1.16a3.35,3.35,0,0,0-.13-1,.9.9,0,0,0-.51-.54,2.9,2.9,0,0,0-1.08-.23c-.47,0-1.09,0-1.85,0h-3.2a3.73,3.73,0,0,0-.84.09,1.73,1.73,0,0,0-.68.29,1.58,1.58,0,0,0-.46.6,2.41,2.41,0,0,0-.17,1v3.43a2.48,2.48,0,0,0,.17,1,1.54,1.54,0,0,0,.46.59,1.73,1.73,0,0,0,.68.29,3.73,3.73,0,0,0,.84.09h4.83a2.5,2.5,0,0,0,1.46-.38,1.48,1.48,0,0,0,.53-1.31v-.92h-4.68v-1h5.91ZM285,52.49l-3.07,5.18H288Zm-.77-1h1.54l5.42,9.12h-1.4l-1.14-1.92h-7.31l-1.13,1.92h-1.4Zm-20.64,0h1.09V55h0a1.27,1.27,0,0,1,.65-.73,3.4,3.4,0,0,1,1.41-.23h1.65a7.41,7.41,0,0,1,1.63.15,2.55,2.55,0,0,1,1.05.48,1.82,1.82,0,0,1,.56.86,4.44,4.44,0,0,1,.16,1.3V58a3.37,3.37,0,0,1-.24,1.37,2.07,2.07,0,0,1-.69.82,2.7,2.7,0,0,1-1.06.41,7.06,7.06,0,0,1-1.35.12h-1.51a3.69,3.69,0,0,1-1.48-.27,1.53,1.53,0,0,1-.85-.86h0v1h-1Zm7.14,5.24a2.5,2.5,0,0,0-.14-.9,1.14,1.14,0,0,0-.42-.54,1.7,1.7,0,0,0-.7-.25,5.58,5.58,0,0,0-1-.07H267a7.31,7.31,0,0,0-1,.06,1.91,1.91,0,0,0-.73.25,1.24,1.24,0,0,0-.47.54,2.27,2.27,0,0,0-.16.94V58a2.75,2.75,0,0,0,.1.79,1.3,1.3,0,0,0,.36.58,1.75,1.75,0,0,0,.65.36,3.7,3.7,0,0,0,1,.12h1.76a4.07,4.07,0,0,0,1.08-.11,1.58,1.58,0,0,0,.66-.34,1.17,1.17,0,0,0,.33-.57,3.37,3.37,0,0,0,.09-.82Zm-17.07,0a3,3,0,0,1,.27-1.39,2,2,0,0,1,.73-.78,2.58,2.58,0,0,1,1-.35,8.5,8.5,0,0,1,1.14-.08h1.74a7,7,0,0,1,1.34.12,2.47,2.47,0,0,1,1.05.42,2.1,2.1,0,0,1,.7.85,3.31,3.31,0,0,1,.25,1.4v.72h-7.15V58a2.6,2.6,0,0,0,.14.91,1.13,1.13,0,0,0,.45.56,1.88,1.88,0,0,0,.8.29,7.13,7.13,0,0,0,1.21.08h1.49a7.49,7.49,0,0,0,.87,0,1.86,1.86,0,0,0,.6-.17.87.87,0,0,0,.36-.35,1.6,1.6,0,0,0,.15-.6h1.08v.13a1.72,1.72,0,0,1-.22.92,1.66,1.66,0,0,1-.64.59,3.6,3.6,0,0,1-1,.31,9.22,9.22,0,0,1-1.36.1h-2a7.82,7.82,0,0,1-1.07-.08,2.5,2.5,0,0,1-1-.35,2,2,0,0,1-.7-.8,3,3,0,0,1-.27-1.41Zm7.15-.4a1.2,1.2,0,0,0-.11-.48,1,1,0,0,0-.36-.42,2,2,0,0,0-.69-.3,4.34,4.34,0,0,0-1.1-.11h-1.59a6.24,6.24,0,0,0-1.06.07,1.43,1.43,0,0,0-.66.25,1,1,0,0,0-.35.53,4.41,4.41,0,0,0-.15.89h6.07Zm-20.93-2.1H241l2.51,5.55,2.05-5.55h1.56l2,5.55,2.51-5.55h1.15l-2.93,6.43h-1.5l-2-5.54-2.06,5.54h-1.5Zm-7.12,7.95c.41,0,.75,0,1,0a2.18,2.18,0,0,0,.68-.18,1.37,1.37,0,0,0,.47-.43,4.27,4.27,0,0,0,.41-.76H235l-3.64-6.54h1.22l3.12,5.69,2.8-5.69h1.17l-3.63,7.23a5.39,5.39,0,0,1-.49.8,1.56,1.56,0,0,1-.6.48,2.68,2.68,0,0,1-.9.24,11.84,11.84,0,0,1-1.36.08Zm-10.29-5.45a3,3,0,0,1,.27-1.39,2,2,0,0,1,.73-.78,2.58,2.58,0,0,1,1-.35,8.5,8.5,0,0,1,1.14-.08h1.74a7,7,0,0,1,1.34.12,2.47,2.47,0,0,1,1.05.42,2.1,2.1,0,0,1,.7.85,3.31,3.31,0,0,1,.25,1.4v.72h-7.15V58a2.6,2.6,0,0,0,.14.91,1.13,1.13,0,0,0,.45.56,1.88,1.88,0,0,0,.8.29,7.13,7.13,0,0,0,1.21.08h1.49a7.49,7.49,0,0,0,.87,0,1.86,1.86,0,0,0,.6-.17.87.87,0,0,0,.36-.35,1.6,1.6,0,0,0,.15-.6h1.08v.13a1.72,1.72,0,0,1-.22.92,1.66,1.66,0,0,1-.64.59,3.6,3.6,0,0,1-1,.31,9.22,9.22,0,0,1-1.36.1h-2a7.82,7.82,0,0,1-1.07-.08,2.5,2.5,0,0,1-1-.35,2,2,0,0,1-.7-.8,3,3,0,0,1-.27-1.41Zm7.15-.4a1.2,1.2,0,0,0-.11-.48,1,1,0,0,0-.36-.42,2,2,0,0,0-.69-.3,4.34,4.34,0,0,0-1.1-.11h-1.59a6.24,6.24,0,0,0-1.06.07,1.43,1.43,0,0,0-.66.25,1.1,1.1,0,0,0-.35.53,4.41,4.41,0,0,0-.15.89h6.07Zm-19.12-4.79h1.24v3.87h1.55L219,51.48h2l0,0-6.54,4.36,7.14,4.72,0,0h-2.17l-6.26-4.24h-1.45V60.6h-1.24ZM196.15,62.12c.41,0,.75,0,1,0a2,2,0,0,0,.68-.18,1.31,1.31,0,0,0,.48-.43,5,5,0,0,0,.41-.76h-.27l-3.64-6.54h1.22l3.11,5.69,2.8-5.69h1.18l-3.63,7.23a5.35,5.35,0,0,1-.5.8,1.56,1.56,0,0,1-.6.48,2.55,2.55,0,0,1-.89.24,12,12,0,0,1-1.37.08ZM185.83,51.48h1.08V55h0a1.22,1.22,0,0,1,.64-.73,3.43,3.43,0,0,1,1.41-.23h1.65a7.35,7.35,0,0,1,1.63.15,2.44,2.44,0,0,1,1,.48,1.75,1.75,0,0,1,.56.86,4.41,4.41,0,0,1,.17,1.3V58a3.35,3.35,0,0,1-.25,1.37,1.92,1.92,0,0,1-.69.82,2.59,2.59,0,0,1-1.06.41,7,7,0,0,1-1.34.12h-1.52a3.64,3.64,0,0,1-1.47-.27,1.55,1.55,0,0,1-.86-.86h0v1h-1ZM193,56.72a2.3,2.3,0,0,0-.14-.9,1.18,1.18,0,0,0-.41-.54,1.76,1.76,0,0,0-.7-.25,5.7,5.7,0,0,0-1-.07h-1.46a7.31,7.31,0,0,0-1,.06,2,2,0,0,0-.74.25,1.3,1.3,0,0,0-.47.54,2.27,2.27,0,0,0-.16.94V58a2.74,2.74,0,0,0,.11.79,1.37,1.37,0,0,0,.35.58,1.8,1.8,0,0,0,.66.36,3.63,3.63,0,0,0,1,.12h1.77a4,4,0,0,0,1.07-.11,1.56,1.56,0,0,0,.67-.34,1.08,1.08,0,0,0,.32-.57A3.37,3.37,0,0,0,193,58Z"/>
</svg>