<svg version="1.1" xmlns="http://www.w3.org/2000/svg" xmlns:xlink="http://www.w3.org/1999/xlink" x="0px" y="0px"
	 viewBox="0 0 260 260" style="enable-background:new 0 0 260 260;" xml:space="preserve">
<style type="text/css">
	.st0{fill:#A02833;}
	.st1{fill:#192F63;}
</style>
<path class="st0" d="M240.5,180c0-9.8,6-17.6,15-23c-1.6-5.5-3.8-10.8-6.4-15.7C239,144,230.8,140,224,133c-6.9-7-9-15.3-6.3-25.5
	c-4.9-2.7-10.1-4.9-15.5-6.5c-5.3,9.1-14.8,15.2-24.5,15.2c-9.7,0-19.2-6.1-24.5-15.2c-5.4,1.6-10.6,3.8-15.5,6.5
	c2.6,10.2,0.5,18.5-6.3,25.5c-6.9,7-15.1,11-25.2,8.3c-2.6,5-4.8,10.2-6.4,15.7c9,5.3,15,13.1,15,23s-6,19.5-15,24.8
	c1.6,5.5,3.8,10.8,6.4,15.7c10.1-2.7,18.3-0.5,25.2,6.4c6.9,7,9,15.3,6.3,25.5c4.9,2.7,10.1,4.9,15.5,6.5
	c5.3-9.1,14.8-15.2,24.5-15.2c9.7,0,19.2,6.1,24.5,15.2c5.4-1.6,10.6-3.8,15.5-6.5c-2.6-10.2-0.5-18.5,6.3-25.5
	c6.9-7,15.1-11,25.2-8.3c2.6-5,4.8-10.2,6.4-15.7C246.5,197.6,240.5,189.9,240.5,180z M177.6,214.4c-18.7,0-33.9-15.4-33.9-34.4
	c0-19,15.2-34.4,33.9-34.4s33.9,15.4,33.9,34.4C211.5,199,196.3,214.4,177.6,214.4z"/>
<path class="st1" d="M54.2,224.3c-40.8,0-41.5-41.3-41.5-43V12.9h162.2c40.8,0,41.5,41.3,41.5,43v20.1h12.5V56
	c0-19.4-11.3-56-53.9-56H0.3v181.2c0,19.4,11.3,56,53.9,56h21.3v-12.9H54.2z"/>
</svg>
