<svg xmlns="http://www.w3.org/2000/svg" viewBox="0 0 613 113.39">
    <defs>
        <style>.cls-1{fill:#9f2833;}.cls-2{fill:#00305d;}.cls-3{fill:#192f63;}</style>
    </defs>
    <path class="cls-1" d="M526.33,88.64h7.48V66.45H534c1.57,4.78,5.13,6.86,13,6.86h14.26c15.39,0,21.73-5,21.73-19.94V45.25c0-15.88-9.91-19.4-20.52-19.4H548.32c-6.61,0-12.69,2.44-14.86,8h-.17V26.57h-7Zm49.2-34.28C575.53,65,570.32,67,561.62,67h-13.3c-7.91,0-14.52-1.8-14.52-12.81V45.43c0-7.94,3.74-13.26,13.56-13.26h14.86c10.52,0,13.3,4.24,13.3,13.17ZM505.9,72.59h7.48V7.27H505.9ZM437.23,54.45c0,17,11.13,18.86,20.86,18.86h13.56c13.91,0,22.34-3.16,22.34-13.71v-.9h-7.48c-.43,7-4.26,8.3-13.65,8.3H462.61c-13,0-17.91-2.71-17.91-13.17v-2.9H494V45.79c0-16.42-9.65-19.94-23-19.94H459c-10.61,0-21.73,1.89-21.73,18.59Zm49.29-9.83H444.71c.7-10.47,3.48-12.45,15.3-12.45h11c12.17,0,15.56,4.69,15.56,9.38Zm-132.22,28h8.52v-30h56.85v30h8.52V7.27h-8.52V35.33H362.82V7.27H354.3Z"/>
    <polygon class="cls-2" points="148.71 72.66 162.87 72.66 162.87 44.92 170.11 44.92 205.63 72.66 225.91 72.66 183.3 39.28 225.07 7.34 202.67 7.34 170.63 32.67 162.87 32.67 162.87 7.34 148.71 7.34 148.71 72.66"/>
    <path class="cls-2" d="M293.83,88.89c15.09.32,20.55-.86,25.15-10.34l26-51.88H331.76L315.28,61.5,298.69,26.68H285.12l21.33,44.15,2.16,4.53c-2.26,4.1-3.31,4.37-14.78,4.37Z"/>
    <path class="cls-2" d="M239.07,45c0-8.75,1.71-10.33,16-10.33,12.77,0,16,1.58,16,10.33ZM239,55.18V52.29h44.15V45.81c0-16.42-9.65-19.94-23-19.94h-12c-10.61,0-21.73,1.9-21.73,18.58v10c0,17,11.13,18.86,20.86,18.86h13.56c13.91,0,22.34-2.9,22.34-15v-.9H271.26c0,6.87-3.73,7.62-13.12,7.62H253c-13,0-14-3.12-14-9.85"/>
    <path class="cls-1" d="M78.2,90.72A13.6,13.6,0,1,1,91.62,76.94v.18A13.51,13.51,0,0,1,78.2,90.72h0m24.93-13.6c0-3.9,2.37-7,5.94-9.09a32.72,32.72,0,0,0-2.54-6.23c-4,1.06-7.24-.53-10-3.29S93,52.51,94,48.42a31.81,31.81,0,0,0-6.14-2.58,11.62,11.62,0,0,1-9.71,6,11.62,11.62,0,0,1-9.71-6,32.44,32.44,0,0,0-6.14,2.58c1,4,.21,7.34-2.51,10.1s-6,4.35-10,3.29A32.76,32.76,0,0,0,47.34,68c3.57,2.12,5.94,5.19,5.94,9.09A11.81,11.81,0,0,1,47.34,87a32.72,32.72,0,0,0,2.54,6.23,9.6,9.6,0,0,1,10,2.54c2.76,2.76,3.55,6,2.51,10.09a31.81,31.81,0,0,0,6.14,2.58,11.62,11.62,0,0,1,9.71-6,11.62,11.62,0,0,1,9.71,6,31.81,31.81,0,0,0,6.14-2.58c-1-4-.21-7.34,2.51-10.09s6-4.35,10-3.29a32.46,32.46,0,0,0,2.54-6.23c-3.57-2.12-5.94-5.19-5.94-9.1"/>
    <path class="cls-3" d="M29.36,94.63c-16.14,0-16.42-16.35-16.42-17V11H77.15C93.3,11,93.57,27.31,93.57,28v8h4.94V28c0-7.67-4.46-22.17-21.36-22.17H8V77.59c0,7.67,4.46,22.17,21.36,22.17h8.42V94.63Z"/>
    <path class="cls-3" d="M593.2,15V12h2c.94,0,2,.22,2,1.41,0,1.36-.92,1.53-2,1.53Zm-1.61,5.68h1.61v-4.3h1.41l2.42,4.3h1.84l-2.64-4.37c1.5-.17,2.58-.88,2.58-2.7,0-2.1-1.26-2.94-3.63-2.94h-3.56Zm-3.64-5a6.91,6.91,0,1,1,13.81-.53,4.69,4.69,0,0,1,0,.53,6.91,6.91,0,0,1-13.81.53,4.69,4.69,0,0,1,0-.53m-1.61,0a8.52,8.52,0,0,0,17,1.17,7.62,7.62,0,0,0,0-1.17,8.52,8.52,0,0,0-17-1.17,7.62,7.62,0,0,0,0,1.17"/>
</svg>