<svg version="1" xmlns="http://www.w3.org/2000/svg" width="933.333" height="933.333" viewBox="0 0 700.000000 700.000000"><path d="M1.3 253.7c.1 139.6.5 254.8.9 255.9.3 1.2.9 3.9 1.2 6 3.8 23.6 13.7 48 27.3 67.1 19.2 27 44 43.8 76.2 51.4 4.6 1.1 10.3 2.3 12.5 2.5 2.3.3 5.2.7 6.6 1 1.4.4 19.3.7 39.8.8l37.2.3.1-2.6c.3-9.4.1-31.3-.3-31.7-.3-.2-17.1-.6-37.4-.8-39.4-.3-45.2-.9-60-6-37.1-12.6-61.7-44.8-69.3-91-1.8-10.6-1.9-22.4-2-241.4V35l3.2-.1c17.7-.4 446 .1 448.2.5 1.7.3 5.3.8 8 1.2 7 .9 20.4 4.9 27.9 8.3 22.4 10.1 40.8 30.5 51 56.4 3 7.5 9 29.6 8.3 30.3-.3.3 0 2.2.5 4.2s1.1 18.1 1.3 35.7c.2 17.6.4 32.3.4 32.6.2 1.1 33.1.6 33.2-.5 0-.6.1-13.9.1-29.6.1-25.4-.5-39.4-1.7-45.5-.3-1.1-.7-3.8-1-6-2.3-16.1-10.9-40.4-19.7-55-.9-1.7-2.5-4.4-3.4-6-.9-1.7-4.5-6.6-7.9-11-18.3-23.5-45.3-40.4-74.2-46.6C490 .1 493.9.2 243.2.1L1 0l.3 253.7z"/><path d="M410 272.7c-12.3 4.2-20.3 7.4-28.8 11.5l-10.4 5 .7 3.4c4.1 22 1.8 37.2-8.1 53.1-9.6 15.2-29.2 30.5-44.4 34.5-5.7 1.6-15.3 2.7-19 2.3-1.9-.2-6-.7-9-1l-5.5-.6-3.9 8.3c-4.1 8.7-10.9 26.3-12 31-.6 2.5-.1 3.1 5.1 6.4 8.4 5.3 21.3 18.8 25.7 26.7 5.8 10.3 7.8 17.6 8.1 29.2.4 11.5-1.1 19.3-5.6 30.1-5.4 13-16.5 26.6-28.2 34.6-5.3 3.6-5.8 4.3-5.2 6.6 1.2 5 7.7 21.7 12 30.8l4.2 9.1 6.4-1.4c28.7-6.1 56.7 6.6 72.7 33 8.7 14.4 10.7 29.8 6.7 50.8l-.7 3.7 9.8 4.7c8.5 4.1 23.7 10.1 30 11.9 1.8.6 2.7-.2 4.9-3.9 3.4-6 15.5-18.3 22.4-22.9 25.3-17 54.1-17.5 79-1.3 8.7 5.7 18.4 15.1 23.7 23.1 2 3.1 3.8 5.6 3.9 5.6.5 0 10.3-3.3 12-4.1 1.1-.4 4.5-1.8 7.5-3 4.4-1.7 20.8-9.5 21.7-10.3.2-.1-.3-3.7-1.1-8-4.9-28.3 5.6-52.5 30.9-71.4 7.5-5.5 13.8-8.7 22.2-11.3 7.7-2.4 21.1-3.1 27.8-1.4 5.3 1.4 5.2 1.4 9.6-7.6 6.4-13.1 13.4-32.8 12.2-33.9-.5-.4-3.8-2.8-7.6-5.4-20.5-14.4-31.9-34.1-31.9-55.5 0-8.9.6-12.3 3.3-20.5 4.9-14.5 15.9-28 31.5-38.3l5.2-3.5-1.2-4.1c-2.5-8.3-6.5-18.4-11-28l-4.6-9.9-6.2.8c-9.5 1.2-19.6.8-26.3-1.1-25.3-7.3-49-32-54-56.3-1.6-7.8-1.4-23 .5-29.2.5-1.9 1-4 1-4.6 0-1.6-18.6-10.5-30.8-14.8-5.7-2-10.5-3.6-10.7-3.6-.1 0-1.8 2.4-3.7 5.2-13.8 20.9-37.6 34.7-60.6 35.3-14.6.4-32.6-5.5-44.5-14.7-6.1-4.6-15.7-14.6-19.7-20.6-1.9-2.9-3.7-5.2-4-5.1-.3 0-1.2.3-2 .6zm90.2 122.1c25.8 6.9 47.4 24.5 59.3 48.2 3.6 7.2 7.3 18.1 8.1 23.9.3 2.5.8 5.5 1 6.6.7 3.4.6 16.7-.1 23-3.5 29.4-21.7 55.8-48.5 70.3-5.9 3.2-18.1 7.6-24.5 8.8-4.9 1-28.9 1.1-33 .2-9.4-2-13.9-3.5-22.5-7.5-21.3-9.9-36.8-26.2-46-48.3-2.4-5.7-3.4-9.3-5.6-19-1.6-6.9-1.6-23.9 0-32.3 4.7-24.7 16.4-43.8 36-58.6 10.8-8.2 26.7-15.1 38.4-16.7 2.6-.3 4.8-.7 5-.9.2-.1 5.8-.1 12.5 0 8.4.2 14.6.9 19.9 2.3z"/></svg>